<svg width="36" height="36" viewBox="0 0 36 36" fill="none" xmlns="http://www.w3.org/2000/svg">
<path d="M33.0012 17.2495C33.0012 16.837 32.6652 16.4995 32.2512 16.4995H31.5012C30.6732 16.4995 30.0012 15.829 30.0012 14.9995C30.0012 14.17 30.6732 13.4995 31.5012 13.4995C31.9152 13.4995 32.2512 13.162 32.2512 12.7495C32.2512 12.337 31.9152 11.9995 31.5012 11.9995H28.5012C27.6732 11.9995 27.0012 11.329 27.0012 10.4995C27.0012 9.67 27.6732 8.9995 28.5012 8.9995H31.5012C33.5682 8.9995 35.2512 10.681 35.2512 12.7495C35.2512 13.3855 35.0907 13.9855 34.8102 14.512C35.5422 15.196 36.0012 16.1695 36.0012 17.2495C36.0012 19.318 34.3182 20.9995 32.2512 20.9995H28.5012C27.6732 20.9995 27.0012 20.329 27.0012 19.4995C27.0012 18.67 27.6732 17.9995 28.5012 17.9995H32.2512C32.6652 17.9995 33.0012 17.662 33.0012 17.2495ZM2.63667 11.482C2.15067 11.7445 1.69767 11.989 1.32267 12.217C0.286167 12.8485 -0.204333 13.906 0.0776669 14.9095C0.347667 15.8755 1.26567 16.4995 2.41317 16.4995H7.50117C8.32917 16.4995 9.00117 15.829 9.00117 14.9995C9.00117 14.17 8.32917 13.4995 7.50117 13.4995H5.19417C7.10067 12.412 9.00117 11.0455 9.00117 8.9995C9.00117 6.5185 6.98217 4.4995 4.50117 4.4995C2.02017 4.4995 0.00116695 6.5185 0.00116695 8.9995C0.00116695 9.829 0.673167 10.4995 1.50117 10.4995C2.32917 10.4995 3.00117 9.829 3.00117 8.9995C3.00117 8.17 3.67467 7.4995 4.50117 7.4995C5.32767 7.4995 6.00117 8.1715 6.00117 8.9995C6.00117 9.6655 3.46917 11.032 2.63667 11.482ZM16.0617 4.6195L16.5012 4.18V10.4995C16.5012 11.329 17.1732 11.9995 18.0012 11.9995C18.8292 11.9995 19.5012 11.329 19.5012 10.4995V2.167C19.5012 1.288 18.9762 0.503502 18.1647 0.166002C17.3517 -0.169998 16.4247 0.0130015 15.8037 0.634002L13.9407 2.497C13.3542 3.0835 13.3542 4.0315 13.9407 4.618C14.5272 5.2045 15.4767 5.206 16.0617 4.6195ZM19.5012 14.9995H16.5012C14.4297 14.9995 12.7512 16.678 12.7512 18.7495V32.2495C12.7512 34.321 14.4297 35.9995 16.5012 35.9995H19.5012C21.5727 35.9995 23.2512 34.321 23.2512 32.2495V18.7495C23.2512 16.678 21.5727 14.9995 19.5012 14.9995ZM32.2512 23.9995H30.0012C27.9297 23.9995 26.2512 25.678 26.2512 27.7495V32.2495C26.2512 34.321 27.9297 35.9995 30.0012 35.9995H32.2512C34.3227 35.9995 36.0012 34.321 36.0012 32.2495V27.7495C36.0012 25.678 34.3227 23.9995 32.2512 23.9995ZM6.00117 19.4995H3.75117C1.67967 19.4995 0.00116695 21.178 0.00116695 23.2495V32.2495C0.00116695 34.321 1.67967 35.9995 3.75117 35.9995H6.00117C8.07267 35.9995 9.75117 34.321 9.75117 32.2495V23.2495C9.75117 21.178 8.07267 19.4995 6.00117 19.4995Z" fill="white"/>
</svg>
